<svg width="128" height="128" version="1.1" xmlns="http://www.w3.org/2000/svg" desc="Created with imagetracer.js version 1.2.6" ><path fill="rgb(0,0,0)" stroke="rgb(0,0,0)" stroke-width="1" opacity="0" d="M 0 0 L 128 0 L 128 128 L 0 128 L 0 0 Z M 60 9 L 54 12 Q 47 16 45 26 L 45 40 L 32 52 L 32 61 L 35 63 L 39 63 L 55 55 L 60 67 Q 61 69 67 68 L 73 55 L 90 63 L 94 63 L 96 61 L 96 52 L 89 45 L 83 40 Q 85 24 79 17 L 72 10 L 60 9 Z M 47 70 L 25 81 L 22 84 L 22 114 L 25 116 L 104 116 L 106 114 L 106 84 L 104 81 L 82 70 L 47 70 Z " /><path fill="rgb(0,0,0)" stroke="rgb(0,0,0)" stroke-width="1" opacity="0" d="M 61.5 18 Q 70.1 16.9 72 22.5 L 70.5 22 Q 67.8 19.2 61.5 20 L 57.5 22 L 59.5 19 L 61.5 18 Z " /><path fill="rgb(0,0,0)" stroke="rgb(0,0,0)" stroke-width="1" opacity="0" d="M 54.5 26 Q 53.3 35.7 59.5 38 L 65.5 39 L 73 33.5 L 73.5 26 L 74 46 L 54 46 L 54.5 26 Z " /><path fill="rgb(0,0,0)" stroke="rgb(0,0,0)" stroke-width="1" opacity="0" d="M 52 79 L 76 79 L 76 87.5 Q 76.8 90.8 81.5 90 Q 85.3 88.3 84.5 82 L 97 88 L 97 107.5 L 96.5 108 L 31 108 L 31 88.5 L 32.5 88 L 43.5 82 Q 42.7 88.3 46.5 90 Q 51.3 90.8 52 87.5 L 52 79 Z " /><path fill="rgb(255,255,255)" stroke="rgb(255,255,255)" stroke-width="1" opacity="0.44313725490196076" d="M 59.5 9 L 71.5 10 L 79 16.5 L 81 20.5 L 80 20.5 L 74.5 13 Q 70 8.5 59.5 10 L 50 16.5 L 47.5 21 L 47 19.5 L 53.5 12 L 59.5 9 Z " /><path fill="rgb(255,255,255)" stroke="rgb(255,255,255)" stroke-width="1" opacity="0.44313725490196076" d="M 62.5 17 L 66 17.5 L 62.5 18 L 62.5 17 Z " /><path fill="rgb(255,255,255)" stroke="rgb(255,255,255)" stroke-width="1" opacity="0.44313725490196076" d="M 59.5 18 L 61 18.5 L 57 21.5 L 58.5 22 L 60 21.5 Q 55.9 22.9 55.5 28 L 54 24.5 L 59.5 18 Z " /><path fill="rgb(255,255,255)" stroke="rgb(255,255,255)" stroke-width="1" opacity="0.44313725490196076" d="M 67.5 18 L 73 22.5 L 74 25.5 L 72.5 29 Q 72.5 23 68 21.5 L 69.5 22 L 71 21.5 L 67.5 18 Z " /><path fill="rgb(255,255,255)" stroke="rgb(255,255,255)" stroke-width="1" opacity="0.44313725490196076" d="M 61.5 20 L 67 20.5 L 61.5 21 L 61.5 20 Z " /><path fill="rgb(255,255,255)" stroke="rgb(255,255,255)" stroke-width="1" opacity="0.44313725490196076" d="M 45.5 25 L 46 28.5 L 45 28.5 L 45.5 25 Z " /><path fill="rgb(255,255,255)" stroke="rgb(255,255,255)" stroke-width="1" opacity="0.44313725490196076" d="M 82.5 25 L 83 28.5 L 82 28.5 L 82.5 25 Z " /><path fill="rgb(255,255,255)" stroke="rgb(255,255,255)" stroke-width="1" opacity="0.44313725490196076" d="M 53.5 27 L 54 46 L 74 46 L 74 27.5 L 75 27.5 L 75 47 L 53 47 L 53.5 27 Z " /><path fill="rgb(255,255,255)" stroke="rgb(255,255,255)" stroke-width="1" opacity="0.44313725490196076" d="M 63 28 Q 66 27 65 30 Q 62 31 63 28 Z " /><path fill="rgb(255,255,255)" stroke="rgb(255,255,255)" stroke-width="1" opacity="0.44313725490196076" d="M 55.5 30 Q 55.4 35.6 59.5 37 L 61 37.5 L 59.5 38 L 55 33.5 L 55.5 30 Z " /><path fill="rgb(255,255,255)" stroke="rgb(255,255,255)" stroke-width="1" opacity="0.44313725490196076" d="M 72.5 30 L 73 33.5 L 67.5 38 L 67.5 37 L 72 33.5 L 72.5 30 Z " /><path fill="rgb(255,255,255)" stroke="rgb(255,255,255)" stroke-width="1" opacity="0.44313725490196076" d="M 62.5 38 L 66 38.5 L 62.5 39 L 62.5 38 Z " /><path fill="rgb(255,255,255)" stroke="rgb(255,255,255)" stroke-width="1" opacity="0.44313725490196076" d="M 44.5 40 L 38.5 47 L 33 51.5 L 32.5 53 L 32 51.5 L 44.5 40 Z " /><path fill="rgb(255,255,255)" stroke="rgb(255,255,255)" stroke-width="1" opacity="0.44313725490196076" d="M 83.5 40 L 96 51.5 L 95.5 53 L 89.5 46 L 83.5 40 Z " /><path fill="rgb(255,255,255)" stroke="rgb(255,255,255)" stroke-width="1" opacity="0.44313725490196076" d="M 53.5 54 L 55 54.5 L 47.5 59 L 47.5 58 L 53.5 54 Z " /><path fill="rgb(255,255,255)" stroke="rgb(255,255,255)" stroke-width="1" opacity="0.44313725490196076" d="M 73.5 54 L 81 58.5 L 79.5 59 L 73.5 55 L 73.5 54 Z " /><path fill="rgb(255,255,255)" stroke="rgb(255,255,255)" stroke-width="1" opacity="0.44313725490196076" d="M 72.5 56 L 72 57.5 L 69.5 63 L 69 61.5 L 72.5 56 Z " /><path fill="rgb(255,255,255)" stroke="rgb(255,255,255)" stroke-width="1" opacity="0.44313725490196076" d="M 32.5 59 L 34.5 62 L 40.5 61 L 40.5 62 L 34.5 63 Q 30.9 61.9 32.5 59 Z " /><path fill="rgb(255,255,255)" stroke="rgb(255,255,255)" stroke-width="1" opacity="0.44313725490196076" d="M 44.5 59 L 46 59.5 L 42.5 61 L 42.5 60 L 44.5 59 Z " /><path fill="rgb(255,255,255)" stroke="rgb(255,255,255)" stroke-width="1" opacity="0.44313725490196076" d="M 82.5 59 L 86 60.5 L 84.5 61 L 82.5 59 Z " /><path fill="rgb(255,255,255)" stroke="rgb(255,255,255)" stroke-width="1" opacity="0.44313725490196076" d="M 95.5 59 L 96 60.5 Q 95 64 89.5 63 L 87 61.5 L 88.5 61 L 93.5 62 L 95.5 59 Z " /><path fill="rgb(255,255,255)" stroke="rgb(255,255,255)" stroke-width="1" opacity="0.44313725490196076" d="M 60.5 66 L 61.5 68 L 60.5 66 Z " /><path fill="rgb(255,255,255)" stroke="rgb(255,255,255)" stroke-width="1" opacity="0.44313725490196076" d="M 67.5 66 L 66.5 68 L 67.5 66 Z " /><path fill="rgb(255,255,255)" stroke="rgb(255,255,255)" stroke-width="1" opacity="0.44313725490196076" d="M 46.5 70 L 82 70.5 L 46.5 71 L 46.5 70 Z " /><path fill="rgb(255,255,255)" stroke="rgb(255,255,255)" stroke-width="1" opacity="0.44313725490196076" d="M 44.5 71 L 43.5 73 L 26.5 81 L 26.5 80 L 44.5 71 Z " /><path fill="rgb(255,255,255)" stroke="rgb(255,255,255)" stroke-width="1" opacity="0.44313725490196076" d="M 83.5 71 L 102 80.5 L 100.5 81 L 84.5 73 L 83.5 71 Z " /><path fill="rgb(255,255,255)" stroke="rgb(255,255,255)" stroke-width="1" opacity="0.44313725490196076" d="M 52.5 78 L 76 78.5 L 52.5 79 L 52.5 78 Z " /><path fill="rgb(255,255,255)" stroke="rgb(255,255,255)" stroke-width="1" opacity="0.44313725490196076" d="M 24.5 81 L 23 83.5 L 23 113.5 L 25 115.5 L 22 113.5 L 22 83.5 L 24.5 81 Z " /><path fill="rgb(255,255,255)" stroke="rgb(255,255,255)" stroke-width="1" opacity="0.44313725490196076" d="M 43.5 81 L 42.5 83 L 31 88 L 30.5 108 L 30 88.5 L 43.5 81 Z " /><path fill="rgb(255,255,255)" stroke="rgb(255,255,255)" stroke-width="1" opacity="0.44313725490196076" d="M 84.5 81 L 98 88.5 L 97.5 108 L 97 88 L 85.5 83 L 84.5 81 Z " /><path fill="rgb(255,255,255)" stroke="rgb(255,255,255)" stroke-width="1" opacity="0.44313725490196076" d="M 103.5 81 L 106 83.5 L 106 113.5 L 103 115.5 L 105 113.5 L 105 83.5 L 103.5 81 Z " /><path fill="rgb(255,255,255)" stroke="rgb(255,255,255)" stroke-width="1" opacity="0.44313725490196076" d="M 44.5 87 Q 45.3 89.8 49.5 89 L 52 87.5 Q 51.3 90.8 46.5 90 L 44.5 87 Z " /><path fill="rgb(255,255,255)" stroke="rgb(255,255,255)" stroke-width="1" opacity="0.44313725490196076" d="M 76.5 87 Q 77.2 89.8 81.5 89 L 84 87.5 Q 83.3 90.8 78.5 90 L 76.5 87 Z " /><path fill="rgb(255,255,255)" stroke="rgb(255,255,255)" stroke-width="1" opacity="0.996078431372549" d="M 71.5 11 L 72.5 13 L 71.5 11 Z " /><path fill="rgb(255,255,255)" stroke="rgb(255,255,255)" stroke-width="1" opacity="0.996078431372549" d="M 53.5 13 L 50.5 17 L 53.5 13 Z " /><path fill="rgb(255,255,255)" stroke="rgb(255,255,255)" stroke-width="1" opacity="0.996078431372549" d="M 74.5 13 L 77.5 17 L 74.5 13 Z " /><path fill="rgb(255,255,255)" stroke="rgb(255,255,255)" stroke-width="1" opacity="0.996078431372549" d="M 49.5 18 L 48.5 20 L 49.5 18 Z " /><path fill="rgb(255,255,255)" stroke="rgb(255,255,255)" stroke-width="1" opacity="0.996078431372549" d="M 78.5 18 L 79.5 20 L 78.5 18 Z " /><path fill="rgb(255,255,255)" stroke="rgb(255,255,255)" stroke-width="1" opacity="0.996078431372549" d="M 57.5 19 L 56.5 21 L 57.5 19 Z " /><path fill="rgb(255,255,255)" stroke="rgb(255,255,255)" stroke-width="1" opacity="0.996078431372549" d="M 70.5 19 L 71.5 21 L 70.5 19 Z " /><path fill="rgb(255,255,255)" stroke="rgb(255,255,255)" stroke-width="1" opacity="0.996078431372549" d="M 55.5 22 L 54.5 24 L 55.5 22 Z " /><path fill="rgb(255,255,255)" stroke="rgb(255,255,255)" stroke-width="1" opacity="0.996078431372549" d="M 45.5 29 L 46 40.5 L 41 44.5 L 45 40.5 L 45.5 29 Z " /><path fill="rgb(255,255,255)" stroke="rgb(255,255,255)" stroke-width="1" opacity="0.996078431372549" d="M 82.5 29 L 83 40.5 L 87 44.5 L 82 40.5 L 82.5 29 Z " /><path fill="rgb(255,255,255)" stroke="rgb(255,255,255)" stroke-width="1" opacity="0.996078431372549" d="M 56.5 33 L 59.5 37 L 56.5 33 Z " /><path fill="rgb(255,255,255)" stroke="rgb(255,255,255)" stroke-width="1" opacity="0.996078431372549" d="M 71.5 33 L 68.5 37 L 71.5 33 Z " /><path fill="rgb(255,255,255)" stroke="rgb(255,255,255)" stroke-width="1" opacity="0.996078431372549" d="M 89.5 46 L 92.5 50 L 89.5 46 Z " /><path fill="rgb(255,255,255)" stroke="rgb(255,255,255)" stroke-width="1" opacity="0.996078431372549" d="M 37.5 47 L 35.5 50 L 37.5 47 Z " /><path fill="rgb(255,255,255)" stroke="rgb(255,255,255)" stroke-width="1" opacity="0.996078431372549" d="M 32.5 53 L 33 58.5 L 32 58.5 L 32.5 53 Z " /><path fill="rgb(255,255,255)" stroke="rgb(255,255,255)" stroke-width="1" opacity="0.996078431372549" d="M 95.5 53 L 96 58.5 L 95 58.5 L 95.5 53 Z " /><path fill="rgb(255,255,255)" stroke="rgb(255,255,255)" stroke-width="1" opacity="0.996078431372549" d="M 60.5 65 Q 61.3 67.8 65.5 67 L 68 65.5 Q 67.3 68.8 62.5 68 L 60.5 65 Z " /><path fill="rgb(255,255,255)" stroke="rgb(255,255,255)" stroke-width="1" opacity="0.996078431372549" d="M 45.5 71 L 44.5 73 L 45.5 71 Z " /><path fill="rgb(255,255,255)" stroke="rgb(255,255,255)" stroke-width="1" opacity="0.996078431372549" d="M 81.5 71 L 84 72.5 L 82.5 72 L 81.5 71 Z " /><path fill="rgb(255,255,255)" stroke="rgb(255,255,255)" stroke-width="1" opacity="0.996078431372549" d="M 25.5 81 L 27 81.5 L 23.5 84 L 25.5 81 Z " /><path fill="rgb(255,255,255)" stroke="rgb(255,255,255)" stroke-width="1" opacity="0.996078431372549" d="M 101.5 81 L 105 83.5 L 102.5 82 L 101.5 81 Z " /><path fill="rgb(255,255,255)" stroke="rgb(255,255,255)" stroke-width="1" opacity="1" d="M 60.5 10 L 70.5 11 L 78 17.5 Q 84.5 24.5 82 40.5 L 86.5 45 L 95 51.5 L 95 60.5 L 93.5 61 L 90.5 62 L 76 56 Q 77.3 53 73.5 54 L 65.5 67 Q 60.8 67.8 60 64.5 L 54.5 54 L 52 54 Q 53.1 56.7 50.5 56 L 40.5 61 L 35.5 62 L 33 61 L 33 51.5 L 34.5 50 L 46 40.5 L 46 25.5 Q 48.8 16.8 55.5 12 L 60.5 10 Z M 61 17 L 58 19 L 53 27 L 53 47 L 75 47 L 75 27 L 72 21 L 68 17 L 61 17 Z " /><path fill="rgb(255,255,255)" stroke="rgb(255,255,255)" stroke-width="1" opacity="1" d="M 61.5 21 Q 69.1 19.9 71 24.5 L 72 32.5 Q 69.8 37.4 63.5 38 L 56 32.5 Q 54.7 24.2 59.5 22 L 61.5 21 Z M 63 28 Q 62 32 65 31 Q 66 27 63 28 Z " /><path fill="rgb(255,255,255)" stroke="rgb(255,255,255)" stroke-width="1" opacity="1" d="M 46.5 71 L 80.5 71 L 102.5 82 L 105 84.5 L 105 112.5 L 104 115 L 100.5 116 L 27.5 116 L 24 115 L 23 112.5 L 23 84.5 L 46.5 71 Z M 52 78 L 51 88 L 49 89 L 45 88 L 44 81 L 32 87 L 30 88 L 30 108 L 98 108 L 98 108 L 98 87 L 84 81 L 83 88 L 81 89 L 77 88 L 76 85 Q 77 78 76 78 L 52 78 Z " /></svg>